<svg width="860" height="195" viewBox="0 0 860 195" xmlns="http://www.w3.org/2000/svg">
  <defs>
    <style>
      @import url('https://fonts.googleapis.com/css2?family=Source+Code+Pro:wght@400;600;700&amp;family=Space+Mono:wght@400;700&amp;display=swap');

      .banner-bg { fill: #0d1117; }
      .grid-line-h { stroke: rgba(56,189,248,0.025); stroke-width: 1; }
      .grid-line-v { stroke: rgba(56,189,248,0.025); stroke-width: 1; }
      .corner-line { stroke: #38bdf8; stroke-width: 1; fill: none; opacity: 0.3; }
      .divider { stroke: rgba(56,189,248,0.09); stroke-width: 1; }

      /* bars scroll animation */
      .bars-group { animation: scrollUp 12s linear infinite; }
      @keyframes scrollUp {
        0%   { transform: translateY(0); }
        100% { transform: translateY(-50%); }
      }

      .bar-bg    { fill: rgba(255,255,255,0.04); }
      .bar-word  { font-family: 'Source Code Pro', monospace; font-size: 9.5px; font-weight: 700; letter-spacing: 0.13em; }
      .sdot      { fill: rgba(255,255,255,0.08); }

      /* bar colors */
      .fill-cyan   { fill: url(#bc); } .word-cyan   { fill: #7dd3fc; } .dot-cyan   { fill: #38bdf8; }
      .fill-purple { fill: url(#bp); } .word-purple { fill: #c4b5fd; } .dot-purple { fill: #a78bfa; }
      .fill-green  { fill: url(#bg); } .word-green  { fill: #6ee7b7; } .dot-green  { fill: #34d399; }
      .fill-pink   { fill: url(#bpk);} .word-pink   { fill: #f9a8d4; } .dot-pink   { fill: #f472b6; }
      .fill-amber  { fill: url(#ba); } .word-amber  { fill: #fde68a; } .dot-amber  { fill: #fbbf24; }
      .fill-sky    { fill: url(#bs); } .word-sky    { fill: #90cdf4; } .dot-sky    { fill: #63b3ed; }

      /* right side text */
      .greeting { font-family: 'Space Mono', monospace; font-size: 34px; font-weight: 700; fill: #f1f5f9; letter-spacing: -0.01em; }
      .tag1 { font-family: 'Source Code Pro', monospace; font-size: 9px; font-weight: 600; letter-spacing: 0.1em; fill: #818cf8; }
      .tag2 { font-family: 'Source Code Pro', monospace; font-size: 9px; font-weight: 600; letter-spacing: 0.1em; fill: #34d399; }
      .tag3 { font-family: 'Source Code Pro', monospace; font-size: 9px; font-weight: 600; letter-spacing: 0.1em; fill: #fbbf24; }
      .tag-sep { font-family: 'Source Code Pro', monospace; font-size: 9px; fill: rgba(255,255,255,0.15); }
      .name-text { font-family: 'Source Code Pro', monospace; font-size: 9px; font-weight: 700; letter-spacing: 0.12em; fill: #38bdf8; opacity: 0.6; }
      .status-label { font-family: 'Source Code Pro', monospace; font-size: 8px; letter-spacing: 0.1em; fill: #334155; }

      /* cursor blink */
      .cursor { fill: #f1f5f9; animation: blink 1.1s step-end infinite; }
      @keyframes blink { 0%,100%{opacity:1} 50%{opacity:0} }

      /* status dot pulse */
      .pulse { fill: #34d399; animation: pulse 2s ease-in-out infinite; }
      @keyframes pulse { 0%,100%{opacity:1;filter:drop-shadow(0 0 3px #34d399)} 50%{opacity:0.5;filter:drop-shadow(0 0 6px #34d399)} }

      /* typewriter */
      .typed-text { font-family: 'Space Mono', monospace; font-size: 34px; font-weight: 700; fill: #f1f5f9; letter-spacing: -0.01em; }
      .char { opacity: 0; }
      .char:nth-child(1)  { animation: appear 0.05s 0.7s  forwards; }
      .char:nth-child(2)  { animation: appear 0.05s 0.82s forwards; }
      .char:nth-child(3)  { animation: appear 0.05s 0.94s forwards; }
      .char:nth-child(4)  { animation: appear 0.05s 1.06s forwards; }
      .char:nth-child(5)  { animation: appear 0.05s 1.18s forwards; }
      .char:nth-child(6)  { animation: appear 0.05s 1.30s forwards; }
      .char:nth-child(7)  { animation: appear 0.05s 1.42s forwards; }
      .char:nth-child(8)  { animation: appear 0.05s 1.54s forwards; }
      .char:nth-child(9)  { animation: appear 0.05s 1.68s forwards; }
      .char:nth-child(10) { animation: appear 0.05s 1.80s forwards; }
      .char:nth-child(11) { animation: appear 0.05s 1.92s forwards; }
      .char:nth-child(12) { animation: appear 0.05s 2.04s forwards; }
      .char:nth-child(13) { animation: appear 0.05s 2.18s forwards; }
      .char:nth-child(14) { animation: appear 0.05s 2.30s forwards; }
      @keyframes appear { to { opacity: 1; } }

      /* cursor moves with typing */
      .typing-cursor {
        animation: blink 1.1s step-end infinite, cursorMove 2.4s steps(14) forwards;
      }
      @keyframes cursorMove {
        0%   { transform: translateX(0px); }
        100% { transform: translateX(238px); }
      }
    </style>

    <!-- bar gradients -->
    <linearGradient id="bc" x1="0" y1="0" x2="1" y2="0"><stop offset="0%" stop-color="#38bdf8" stop-opacity="0.55"/><stop offset="100%" stop-color="#38bdf8" stop-opacity="0.18"/></linearGradient>
    <linearGradient id="bp" x1="0" y1="0" x2="1" y2="0"><stop offset="0%" stop-color="#8b5cf6" stop-opacity="0.55"/><stop offset="100%" stop-color="#8b5cf6" stop-opacity="0.15"/></linearGradient>
    <linearGradient id="bg" x1="0" y1="0" x2="1" y2="0"><stop offset="0%" stop-color="#34d399" stop-opacity="0.50"/><stop offset="100%" stop-color="#34d399" stop-opacity="0.12"/></linearGradient>
    <linearGradient id="bpk" x1="0" y1="0" x2="1" y2="0"><stop offset="0%" stop-color="#f472b6" stop-opacity="0.50"/><stop offset="100%" stop-color="#f472b6" stop-opacity="0.12"/></linearGradient>
    <linearGradient id="ba" x1="0" y1="0" x2="1" y2="0"><stop offset="0%" stop-color="#fbbf24" stop-opacity="0.45"/><stop offset="100%" stop-color="#fbbf24" stop-opacity="0.10"/></linearGradient>
    <linearGradient id="bs" x1="0" y1="0" x2="1" y2="0"><stop offset="0%" stop-color="#63b3ed" stop-opacity="0.50"/><stop offset="100%" stop-color="#63b3ed" stop-opacity="0.12"/></linearGradient>

    <clipPath id="left-clip"><rect x="0" y="0" width="378" height="195" rx="10"/></clipPath>
    <clipPath id="banner-clip"><rect x="0" y="0" width="860" height="195" rx="10"/></clipPath>
  </defs>

  <!-- background -->
  <rect class="banner-bg" width="860" height="195" rx="10"/>

  <!-- grid lines -->
  <g clip-path="url(#banner-clip)">
    <line class="grid-line-h" x1="0" y1="28" x2="860" y2="28"/>
    <line class="grid-line-h" x1="0" y1="56" x2="860" y2="56"/>
    <line class="grid-line-h" x1="0" y1="84" x2="860" y2="84"/>
    <line class="grid-line-h" x1="0" y1="112" x2="860" y2="112"/>
    <line class="grid-line-h" x1="0" y1="140" x2="860" y2="140"/>
    <line class="grid-line-h" x1="0" y1="168" x2="860" y2="168"/>
    <line class="grid-line-v" x1="28"  y1="0" x2="28"  y2="195"/>
    <line class="grid-line-v" x1="56"  y1="0" x2="56"  y2="195"/>
    <line class="grid-line-v" x1="84"  y1="0" x2="84"  y2="195"/>
    <line class="grid-line-v" x1="112" y1="0" x2="112" y2="195"/>
    <line class="grid-line-v" x1="140" y1="0" x2="140" y2="195"/>
    <line class="grid-line-v" x1="168" y1="0" x2="168" y2="195"/>
    <line class="grid-line-v" x1="196" y1="0" x2="196" y2="195"/>
    <line class="grid-line-v" x1="224" y1="0" x2="224" y2="195"/>
    <line class="grid-line-v" x1="252" y1="0" x2="252" y2="195"/>
    <line class="grid-line-v" x1="280" y1="0" x2="280" y2="195"/>
    <line class="grid-line-v" x1="308" y1="0" x2="308" y2="195"/>
    <line class="grid-line-v" x1="336" y1="0" x2="336" y2="195"/>
    <line class="grid-line-v" x1="364" y1="0" x2="364" y2="195"/>
  </g>

  <!-- corner accents -->
  <polyline class="corner-line" points="7,20 7,7 20,7"/>
  <polyline class="corner-line" points="840,7 853,7 853,20"/>
  <polyline class="corner-line" points="7,175 7,188 20,188"/>
  <polyline class="corner-line" points="840,188 853,188 853,175"/>

  <!-- divider -->
  <line class="divider" x1="378" y1="0" x2="378" y2="195"/>

  <!-- LEFT: scrolling bars clipped -->
  <g clip-path="url(#left-clip)">
    <g class="bars-group">
      <!-- row 1: AI cyan -->
      <rect class="bar-bg" x="16" y="8" width="330" height="18" rx="3"/>
      <rect class="fill-cyan" x="16" y="8" width="330" height="18" rx="3"/>
      <text class="bar-word word-cyan" x="24" y="21">AI</text>
      <circle class="sdot dot-cyan" cx="352" cy="17" r="2"/><circle class="sdot" cx="359" cy="17" r="2"/><circle class="sdot dot-cyan" cx="366" cy="17" r="2"/><circle class="sdot" cx="373" cy="17" r="2"/>

      <!-- row 2: PYTHON amber -->
      <rect class="bar-bg" x="16" y="36" width="330" height="18" rx="3"/>
      <rect class="fill-amber" x="16" y="36" width="330" height="18" rx="3"/>
      <text class="bar-word word-amber" x="24" y="49">PYTHON</text>
      <circle class="sdot dot-amber" cx="352" cy="45" r="2"/><circle class="sdot dot-amber" cx="359" cy="45" r="2"/><circle class="sdot dot-amber" cx="366" cy="45" r="2"/><circle class="sdot dot-amber" cx="373" cy="45" r="2"/>

      <!-- row 3: ML purple -->
      <rect class="bar-bg" x="16" y="64" width="330" height="18" rx="3"/>
      <rect class="fill-purple" x="16" y="64" width="330" height="18" rx="3"/>
      <text class="bar-word word-purple" x="24" y="77">ML</text>
      <circle class="sdot dot-purple" cx="352" cy="73" r="2"/><circle class="sdot dot-purple" cx="359" cy="73" r="2"/><circle class="sdot" cx="366" cy="73" r="2"/><circle class="sdot" cx="373" cy="73" r="2"/>

      <!-- row 4: DATA green -->
      <rect class="bar-bg" x="16" y="92" width="330" height="18" rx="3"/>
      <rect class="fill-green" x="16" y="92" width="330" height="18" rx="3"/>
      <text class="bar-word word-green" x="24" y="105">DATA</text>
      <circle class="sdot dot-green" cx="352" cy="101" r="2"/><circle class="sdot dot-green" cx="359" cy="101" r="2"/><circle class="sdot dot-green" cx="366" cy="101" r="2"/><circle class="sdot dot-green" cx="373" cy="101" r="2"/>

      <!-- row 5: NCP pink -->
      <rect class="bar-bg" x="16" y="120" width="330" height="18" rx="3"/>
      <rect class="fill-pink" x="16" y="120" width="330" height="18" rx="3"/>
      <text class="bar-word word-pink" x="24" y="133">NCP</text>
      <circle class="sdot dot-pink" cx="352" cy="129" r="2"/><circle class="sdot dot-pink" cx="359" cy="129" r="2"/><circle class="sdot" cx="366" cy="129" r="2"/><circle class="sdot" cx="373" cy="129" r="2"/>

      <!-- row 6: DESIGN sky -->
      <rect class="bar-bg" x="16" y="148" width="330" height="18" rx="3"/>
      <rect class="fill-sky" x="16" y="148" width="330" height="18" rx="3"/>
      <text class="bar-word word-sky" x="24" y="161">DESIGN</text>
      <circle class="sdot dot-sky" cx="352" cy="157" r="2"/><circle class="sdot dot-sky" cx="359" cy="157" r="2"/><circle class="sdot dot-sky" cx="366" cy="157" r="2"/><circle class="sdot" cx="373" cy="157" r="2"/>

      <!-- row 7: NEURAL COMP purple -->
      <rect class="bar-bg" x="16" y="176" width="330" height="18" rx="3"/>
      <rect class="fill-purple" x="16" y="176" width="330" height="18" rx="3"/>
      <text class="bar-word word-purple" x="24" y="189">NEURAL COMP</text>
      <circle class="sdot dot-purple" cx="352" cy="185" r="2"/><circle class="sdot dot-purple" cx="359" cy="185" r="2"/><circle class="sdot dot-purple" cx="366" cy="185" r="2"/><circle class="sdot" cx="373" cy="185" r="2"/>

      <!-- row 8: DATA SCI green -->
      <rect class="bar-bg" x="16" y="204" width="330" height="18" rx="3"/>
      <rect class="fill-green" x="16" y="204" width="330" height="18" rx="3"/>
      <text class="bar-word word-green" x="24" y="217">DATA SCI</text>
      <circle class="sdot dot-green" cx="352" cy="213" r="2"/><circle class="sdot dot-green" cx="359" cy="213" r="2"/><circle class="sdot dot-green" cx="366" cy="213" r="2"/><circle class="sdot" cx="373" cy="213" r="2"/>

      <!-- row 9: PYTHON amber -->
      <rect class="bar-bg" x="16" y="232" width="330" height="18" rx="3"/>
      <rect class="fill-amber" x="16" y="232" width="330" height="18" rx="3"/>
      <text class="bar-word word-amber" x="24" y="245">PYTHON</text>
      <circle class="sdot dot-amber" cx="352" cy="241" r="2"/><circle class="sdot dot-amber" cx="359" cy="241" r="2"/><circle class="sdot" cx="366" cy="241" r="2"/><circle class="sdot" cx="373" cy="241" r="2"/>

      <!-- row 10: ML pink -->
      <rect class="bar-bg" x="16" y="260" width="330" height="18" rx="3"/>
      <rect class="fill-pink" x="16" y="260" width="330" height="18" rx="3"/>
      <text class="bar-word word-pink" x="24" y="273">ML</text>
      <circle class="sdot dot-pink" cx="352" cy="269" r="2"/><circle class="sdot" cx="359" cy="269" r="2"/><circle class="sdot" cx="366" cy="269" r="2"/><circle class="sdot" cx="373" cy="269" r="2"/>

      <!-- row 11: AI cyan -->
      <rect class="bar-bg" x="16" y="288" width="330" height="18" rx="3"/>
      <rect class="fill-cyan" x="16" y="288" width="330" height="18" rx="3"/>
      <text class="bar-word word-cyan" x="24" y="301">AI</text>
      <circle class="sdot dot-cyan" cx="352" cy="297" r="2"/><circle class="sdot dot-cyan" cx="359" cy="297" r="2"/><circle class="sdot dot-cyan" cx="366" cy="297" r="2"/><circle class="sdot" cx="373" cy="297" r="2"/>

      <!-- row 12: DESIGN sky -->
      <rect class="bar-bg" x="16" y="316" width="330" height="18" rx="3"/>
      <rect class="fill-sky" x="16" y="316" width="330" height="18" rx="3"/>
      <text class="bar-word word-sky" x="24" y="329">DESIGN</text>
      <circle class="sdot dot-sky" cx="352" cy="325" r="2"/><circle class="sdot dot-sky" cx="359" cy="325" r="2"/><circle class="sdot" cx="366" cy="325" r="2"/><circle class="sdot" cx="373" cy="325" r="2"/>

      <!-- DUPLICATE for seamless loop -->
      <rect class="bar-bg" x="16" y="344" width="330" height="18" rx="3"/>
      <rect class="fill-cyan" x="16" y="344" width="330" height="18" rx="3"/>
      <text class="bar-word word-cyan" x="24" y="357">AI</text>
      <circle class="sdot dot-cyan" cx="352" cy="353" r="2"/><circle class="sdot" cx="359" cy="353" r="2"/><circle class="sdot dot-cyan" cx="366" cy="353" r="2"/><circle class="sdot" cx="373" cy="353" r="2"/>

      <rect class="bar-bg" x="16" y="372" width="330" height="18" rx="3"/>
      <rect class="fill-amber" x="16" y="372" width="330" height="18" rx="3"/>
      <text class="bar-word word-amber" x="24" y="385">PYTHON</text>
      <circle class="sdot dot-amber" cx="352" cy="381" r="2"/><circle class="sdot dot-amber" cx="359" cy="381" r="2"/><circle class="sdot dot-amber" cx="366" cy="381" r="2"/><circle class="sdot dot-amber" cx="373" cy="381" r="2"/>

      <rect class="bar-bg" x="16" y="400" width="330" height="18" rx="3"/>
      <rect class="fill-purple" x="16" y="400" width="330" height="18" rx="3"/>
      <text class="bar-word word-purple" x="24" y="413">ML</text>
      <circle class="sdot dot-purple" cx="352" cy="409" r="2"/><circle class="sdot dot-purple" cx="359" cy="409" r="2"/><circle class="sdot" cx="366" cy="409" r="2"/><circle class="sdot" cx="373" cy="409" r="2"/>

      <rect class="bar-bg" x="16" y="428" width="330" height="18" rx="3"/>
      <rect class="fill-green" x="16" y="428" width="330" height="18" rx="3"/>
      <text class="bar-word word-green" x="24" y="441">DATA</text>
      <circle class="sdot dot-green" cx="352" cy="437" r="2"/><circle class="sdot dot-green" cx="359" cy="437" r="2"/><circle class="sdot dot-green" cx="366" cy="437" r="2"/><circle class="sdot dot-green" cx="373" cy="437" r="2"/>

      <rect class="bar-bg" x="16" y="456" width="330" height="18" rx="3"/>
      <rect class="fill-pink" x="16" y="456" width="330" height="18" rx="3"/>
      <text class="bar-word word-pink" x="24" y="469">NCP</text>
      <circle class="sdot dot-pink" cx="352" cy="465" r="2"/><circle class="sdot dot-pink" cx="359" cy="465" r="2"/><circle class="sdot" cx="366" cy="465" r="2"/><circle class="sdot" cx="373" cy="465" r="2"/>

      <rect class="bar-bg" x="16" y="484" width="330" height="18" rx="3"/>
      <rect class="fill-sky" x="16" y="484" width="330" height="18" rx="3"/>
      <text class="bar-word word-sky" x="24" y="497">DESIGN</text>
      <circle class="sdot dot-sky" cx="352" cy="493" r="2"/><circle class="sdot dot-sky" cx="359" cy="493" r="2"/><circle class="sdot dot-sky" cx="366" cy="493" r="2"/><circle class="sdot" cx="373" cy="493" r="2"/>

      <rect class="bar-bg" x="16" y="512" width="330" height="18" rx="3"/>
      <rect class="fill-purple" x="16" y="512" width="330" height="18" rx="3"/>
      <text class="bar-word word-purple" x="24" y="525">NEURAL COMP</text>
      <circle class="sdot dot-purple" cx="352" cy="521" r="2"/><circle class="sdot dot-purple" cx="359" cy="521" r="2"/><circle class="sdot dot-purple" cx="366" cy="521" r="2"/><circle class="sdot" cx="373" cy="521" r="2"/>

      <rect class="bar-bg" x="16" y="540" width="330" height="18" rx="3"/>
      <rect class="fill-green" x="16" y="540" width="330" height="18" rx="3"/>
      <text class="bar-word word-green" x="24" y="553">DATA SCI</text>
      <circle class="sdot dot-green" cx="352" cy="549" r="2"/><circle class="sdot dot-green" cx="359" cy="549" r="2"/><circle class="sdot dot-green" cx="366" cy="549" r="2"/><circle class="sdot" cx="373" cy="549" r="2"/>

      <rect class="bar-bg" x="16" y="568" width="330" height="18" rx="3"/>
      <rect class="fill-amber" x="16" y="568" width="330" height="18" rx="3"/>
      <text class="bar-word word-amber" x="24" y="581">PYTHON</text>
      <circle class="sdot dot-amber" cx="352" cy="577" r="2"/><circle class="sdot dot-amber" cx="359" cy="577" r="2"/><circle class="sdot" cx="366" cy="577" r="2"/><circle class="sdot" cx="373" cy="577" r="2"/>

      <rect class="bar-bg" x="16" y="596" width="330" height="18" rx="3"/>
      <rect class="fill-pink" x="16" y="596" width="330" height="18" rx="3"/>
      <text class="bar-word word-pink" x="24" y="609">ML</text>
      <circle class="sdot dot-pink" cx="352" cy="605" r="2"/><circle class="sdot" cx="359" cy="605" r="2"/><circle class="sdot" cx="366" cy="605" r="2"/><circle class="sdot" cx="373" cy="605" r="2"/>

      <rect class="bar-bg" x="16" y="624" width="330" height="18" rx="3"/>
      <rect class="fill-cyan" x="16" y="624" width="330" height="18" rx="3"/>
      <text class="bar-word word-cyan" x="24" y="637">AI</text>
      <circle class="sdot dot-cyan" cx="352" cy="633" r="2"/><circle class="sdot dot-cyan" cx="359" cy="633" r="2"/><circle class="sdot dot-cyan" cx="366" cy="633" r="2"/><circle class="sdot" cx="373" cy="633" r="2"/>

      <rect class="bar-bg" x="16" y="652" width="330" height="18" rx="3"/>
      <rect class="fill-sky" x="16" y="652" width="330" height="18" rx="3"/>
      <text class="bar-word word-sky" x="24" y="665">DESIGN</text>
      <circle class="sdot dot-sky" cx="352" cy="661" r="2"/><circle class="sdot dot-sky" cx="359" cy="661" r="2"/><circle class="sdot" cx="366" cy="661" r="2"/><circle class="sdot" cx="373" cy="661" r="2"/>
    </g>
  </g>

  <!-- RIGHT PANEL -->
  <!-- typewriter greeting -->
  <g font-family="'Space Mono', monospace" font-size="34" font-weight="700" fill="#f1f5f9" letter-spacing="-0.01em">
    <text class="char" x="400" y="82">H</text>
    <text class="char" x="422" y="82">i</text>
    <text class="char" x="434" y="82">,</text>
    <text class="char" x="446" y="82"> </text>
    <text class="char" x="455" y="82">I</text>
    <text class="char" x="467" y="82">'</text>
    <text class="char" x="476" y="82">m</text>
    <text class="char" x="501" y="82"> </text>
    <text class="char" x="510" y="82">A</text>
    <text class="char" x="532" y="82">n</text>
    <text class="char" x="553" y="82">u</text>
    <text class="char" x="574" y="82">s</text>
    <text class="char" x="591" y="82">h</text>
    <text class="char" x="612" y="82">a</text>
  </g>
  <!-- blinking cursor -->
  <rect class="cursor" x="400" y="58" width="3" height="28"/>

  <!-- tagline -->
  <text class="tag1" x="400" y="108" text-transform="uppercase">COGNITIVE SCIENCE</text>
  <text class="tag-sep" x="554" y="108">•</text>
  <text class="tag2" x="566" y="108" text-transform="uppercase">ML &amp; NEURAL COMPUTATION</text>
  <text class="tag-sep" x="400" y="122">•</text>
  <text class="tag3" x="412" y="122" text-transform="uppercase">DATA SCIENCE</text>

  <!-- footer -->
  <text class="name-text" x="400" y="175" text-transform="uppercase">ANUSHA SHINDE</text>
  <!-- status dot + label -->
  <circle class="pulse" cx="840" cy="172" r="3"/>
  <text class="status-label" x="822" y="176" text-anchor="end" text-transform="uppercase">available</text>
</svg>
